<svg xmlns="http://www.w3.org/2000/svg" viewBox="0 0 174.06 285.49"><defs><style>.cls-1{fill:#fff;}</style></defs><g id="Capa_2" data-name="Capa 2"><g id="Capa_1-2" data-name="Capa 1"><path d="M33.5,224.34V220l4.16-.59V192.8l-.7-.3q-6.39,16.16-12.77,32.29l-1.05,0L10.37,191.71l-.61.13v27.31l3.84.86v4.34H.35L0,220.1l4.44-.83V190.1L.3,189.32v-4.46c4,0,7.84-.18,11.62.13.95.08,2.14,1.6,2.58,2.71,3.05,7.65,5.93,15.37,9.19,23.94.86-1.66,1.48-2.63,1.89-3.68,2.6-6.6,5.33-13.16,7.65-19.87.93-2.69,2.28-3.48,4.93-3.3,3.09.21,6.2.05,9.58.05v4.63l-4.06.48v29.27l4.08.85.26,4.27Z"/><path d="M77.58,247c4.8-3.64,9.69-1.22,14.44-2.05v5.74l-4.32.9c0,5.71,0,11.49,0,17.27s-.08,11.74-6.3,14.64c-6.7,3.12-13.41,2.34-20.43-1l3.83-5.41c10.84,2.88,14.55.91,13.55-7-9.14,3.6-13.12,3-16.79-2.4-3.9-5.79-3.23-15,1.44-19.78C67.11,243.72,72,243.51,77.58,247Zm1.14,11.73c0-4.5-2.1-7.08-5.58-6.95-3.26.12-5.18,2.7-5.2,6.95s2.25,7.15,5.61,7C76.7,265.63,78.74,262.86,78.72,258.75Z"/><path d="M35.09,233.08a27.33,27.33,0,0,1,.36,2.76c0,2.82,0,5.65,0,8.8h-6.8c-1.21-6.06-1.21-6.06-12.16-5v8.85l7.83.34v6.36h-8v10.33l5.42.47v6.25H.37V266l5.25-.53V239.68L.38,239v-5.92Z"/><path d="M113,255.41c-.44-4.62-3.13-6.39-7.39-5.21-2.78.78-5.71,1-9.25,1.64.38-1.72.35-2.34.64-2.71,4.07-5.38,17.44-6.8,22.09-2,1.67,1.75,2.51,4.72,2.83,7.25.47,3.63.12,7.37.12,11.32l4.18,1.11v6c-4.37-.42-8.69-.87-13-1.24a11.82,11.82,0,0,0-2.64.26c-1.94.3-3.89,1-5.81.9-5.36-.26-9-3.78-9-8.34s3.49-8.38,8.6-8.94A83,83,0,0,1,113,255.41Zm-5,3.76c-1.66,1.95-3.72,3.32-3.64,4.56s2.55,3.69,3.36,3.46c2-.57,3.66-2.37,5.46-3.68Z"/><path d="M139.75,212.06H117.67a7.6,7.6,0,0,0,4.65,7.78,9.57,9.57,0,0,0,10.8-1.17c2.44-2.08,4.32-2.13,6.56-.17-3.81,6.44-12.58,8.82-20.06,5.42-6.79-3.07-9.93-10.48-7.57-17.85,2.06-6.44,9.38-10.69,16.25-9.44C135.54,198,140.26,204.09,139.75,212.06Zm-5.09-3.87c-2.06-5.66-5.3-8-9.89-7.45-3.89.45-6.27,3-6.77,7.45Z"/><path d="M152.66,245v7.15c-8.86,3-10.85,6-9.3,14l4.65.59v5.47H129.24v-5.46l4.54-.67V251.68l-4-.92v-5.44h11.79l.5,4.26,9.45-5.84Z"/><path d="M159.51,196.47a14.07,14.07,0,0,1,14.2,14.37c-.05,8.39-6.21,14.65-14.43,14.64S145,219.3,145,210.83,151.11,196.39,159.51,196.47Zm8.6,14.52c0-5.29-3.89-9.46-8.87-9.4a9,9,0,0,0-8.83,9.07,9.22,9.22,0,0,0,8.73,9.67C164.1,220.45,168.07,216.32,168.11,211Z"/><path d="M76.81,219.4l4.79.85.24,4.49c-3.78-1.14-8,2.26-10.76-2.37-2.44.82-4.9,2.07-7.49,2.42-5.08.69-8-1.57-8.3-6.71s-.07-10.49-.07-15.73l-1.1.49-3.48-4.45,1-1h8.74c0,2.95,0,5.84,0,8.74,0,3.13,0,6.26.1,9.38,0,2.33,0,4.73,3.24,5,3,.21,7.89-2.67,8-5,.17-4.38.05-8.76.05-13.35l-4.39-.56c-.9-4.81,0-5.19,9.44-4Z"/><path d="M85,224.09v-10c2.29,1.49,4.06,2.15,5.06,3.41,2.18,2.75,7,4.08,9.89,2.12a3.76,3.76,0,0,0,1.62-2.63,3.35,3.35,0,0,0-1.81-2.46c-2.39-.86-4.93-1.24-7.38-1.93-5.37-1.5-7.88-4.59-7.35-8.91s4.38-7.19,9.68-7.07c1.81,0,3.6.79,5.42.89a43.65,43.65,0,0,0,5.58-.42v9.91c-2.14-1.4-3.79-2.14-5-3.32-2.49-2.42-5.27-3.43-8.48-2.06a3.86,3.86,0,0,0-2.09,2.78c0,.83,1.3,2.13,2.27,2.45,2.54.82,5.24,1.15,7.84,1.8,4.63,1.16,7.27,4.28,7.15,8.28s-3.23,7.11-8.11,7.82a10.77,10.77,0,0,1-2.11.2C93.26,224.73,89.37,224.42,85,224.09Z"/><path d="M174.06,266.67v5.6H157.7V267l3.48-1.06v-14.4l-3.54-.57v-5.61H170.3c0,5.6.1,11.2,0,16.79C170.2,264.84,170.43,267,174.06,266.67Z"/><path d="M55.47,266.28v5.87H38.87V266.8l3.63-1.06V251.58l-3.61-.89v-5.35H51.46c0,5.45,0,10.93,0,16.41C51.42,264.46,51.15,267.25,55.47,266.28Z"/><path d="M41.94,236.1c1.67-1.26,3.19-3.22,5-3.62,2.92-.63,4.84,1.46,5,4.36s-1.86,5.06-4.7,4.65c-1.88-.26-3.51-2.24-5.25-3.45Z"/><path d="M171.36,238c-1.72,1.26-3.31,3.29-5.2,3.61-2.92.5-4.78-1.57-4.76-4.64,0-2.89,1.93-4.81,4.58-4.4,1.92.29,3.58,2.22,5.35,3.42Z"/><path d="M77.88,133.28c-3-.27-5.48-.18-7.74-.82a5.82,5.82,0,0,1-3.13-3c-.26-.57,1-2.19,1.9-2.87,1.86-1.39,2.89-2.69,2.29-5.32-.41-1.8.31-3.9.67-5.83.63-3.34,1.85-6.64,2-10,.22-5.73,1.13-11,6.24-15.64a52.65,52.65,0,0,0-6.59-1.69c-2.57-.31-4.09.66-3.47,3.7,3.44,17.14-8.75,38-26.19,45.44a8.44,8.44,0,0,0-3.55,2.31,31.14,31.14,0,0,1,4.86.75c1.26.38,3.12,1.1,3.33,2a5.2,5.2,0,0,1-1.32,4c-5.43,5.69-13.23,5.14-17.37-1.51a32.45,32.45,0,0,1-3.94-10.63c-.92-4.63,1.83-7.14,5.95-9.78,7.7-4.92,15.44-10.08,22.1-16.28,6.39-5.95,5.29-14.1-.92-20.5a6.58,6.58,0,0,1-1.51-4.92c.94-5.72-2.35-9.24-5.86-12.77-.49-.5-1.34-.88-1.48-1.45-1.92-7.83-8.61-12.74-11.91-19.81-3.13-6.71-4.62-12.82.62-19.26-4.69-3.6-7.25-7.84-5.37-13.72,2.75-8.59,11.95-11,18.5-4.86a43.77,43.77,0,0,0,3.75,3.47c3.68,2.72,6,2.5,9.27-.72,3.65-3.59,7.1-7.4,11-10.72,4.68-4,6.31-3.62,11.27-.06,1.49,1.07,4,.59,6,1,3.92.83,8.16,1.11,11.64,2.86,6.22,3.12,7.78,11.74,3.64,17.35a4,4,0,0,1-3.07,1.63c-.82-.15-1.63-1.68-2-2.76a11.79,11.79,0,0,1-.23-3.25c-2.37-.53-4.6-.69-6.51-1.56s-3.24-2.35-5.19-3.84c-2.22,8.26-4,9.27-10.19,6.82-7.17,12.14-7.29,12.25-19.38,17,1.86,2.31,3.19,4.72,5.18,6.27,3.9,3,7.39,5.33,9.77,10.7s6.62,10.25,9.53,15.75c.57,1.08,3.21,1.06,6.15,1.91-1.68-2.8-2.71-4.4-3.63-6.06-2.5-4.53-3-9,0-13.63a17.47,17.47,0,0,0,1.94-5.07c1.26-4.7,5-8.43,9.53-8.45,7,0,10.78-5.08,16-8.53-1.34-1.61-2.63-2.55-3-3.78-.59-1.83-1.44-4.52-.59-5.65a8.17,8.17,0,0,1,5.86-2.86c2.22,0,4.38,1.83,6.66,2.55a44.48,44.48,0,0,0,8.31,2c3.27.38,5.15,3.15,3.43,6A59.23,59.23,0,0,1,127,34.59c-1.81,2.33-1.46,4.1.82,6.19,1.79,1.65,2.41,4.56,4.16,6.28a54,54,0,0,0,8.7,6.78c8,5.13,10,12.62,5,20.63A11.67,11.67,0,0,1,141,78.56c-2.54,1.21-3.5,2.36-3.14,5.47a35.86,35.86,0,0,1-.78,11.39c-1.77,8.17-1.06,16.16,1.1,24,.61,2.26,2.65,4.17,4.18,6.13,2.3,3,4.11,5.94,1.4,9.6-2.28,3.09-9.25,5.53-12.27,4.23-2.57-1.12-2.48-2.94-.8-4.72a40.4,40.4,0,0,1,3.82-3.29c-7,1.07-14.15,2.33-21.34,3.21-4.61.56-8.22,2.82-11.88,5.36-1.49,1-3.76,2.07-5.29,1.66-6-1.57-11.14.45-16.55,2.27-2.33.79-5,.55-7.54.77.9-2.35,1.65-4.78,2.76-7A30.94,30.94,0,0,1,77.88,133.28ZM92.24,41.94c-7.66,2.73-4.78,11.51-9.71,15.89,4.07.34,7.65,1,10.52-2.33.75-.88,3-.49,4.52-.69,0,1,.39,2.36-.1,3-2.7,3.62-.74,5.33,2.45,6.64,2.86,1.18,5.69,2.44,8.63,3.38,1.11.35,2.87.38,3.63-.27,2.16-1.85,4-1.37,6.15-.18a12.49,12.49,0,0,0,3.15,1l1.37-5-.15.14c5.4,1.44,5.58,1.85,2.41,5.63a12.06,12.06,0,0,0,3,.31c1.84-.28,4.85-.38,5.22-1.37,1-2.73-.87-4.67-3.5-5.82A25.78,25.78,0,0,1,126.33,60l.57-.93c2.5,1.13,5.22,3.47,7.45,3.07s4.23-3.45,6.46-5.47c-3.59-2.89-6.41-5.25-9.34-7.45-.62-.48-1.66-.41-2.51-.59a21.1,21.1,0,0,1,0,2.39c-.15,1.09-.43,2.16-.65,3.24a12.63,12.63,0,0,1-3.38-1c-.56-.33-.64-1.45-.81-1.89l-10.26-1.07a37,37,0,0,1-2,4.36c-.12.2-2-.18-2.15-.57a45,45,0,0,1-1-5.84c-2.79-1.52-6.72-3.06-9.86-5.57-2.47-2-4.33-2-6.74-.64Zm-44,28.37C55.7,75.49,50.37,86,58.29,90.7c.45.27.49,1.29.67,2,2,7.82-.1,14.41-6.29,19.44-3.51,2.85-7.46,5.17-11.23,7.69-7.2,4.82-7.21,4.81-5.19,12.87,1.18,4.72,1.87,5,6.44,3.18,16.74-6.79,28.91-27,25.74-43.81-.85-4.49.83-6.1,5.43-5.6,2.23.24,4.4,1.44,6.59,1.45,4.36,0,5.86,2.77,7,6.2a27.11,27.11,0,0,1-2.54,23c-1.81,3.11-3.21,6.45-5.08,10.27,3.12,0,5.31-.38,7.32.08,4.18.94,6.7-1.15,8.95-4.11,7.37-9.66,9.22-20.53,6.84-32.24-1-4.85-2.7-9.2-8.36-10.62-1.82-.45-3.29-2.18-5-3.1-2.66-1.41-5.5-2.47-8.1-4a9.62,9.62,0,0,1-3.3-3.29c-2.36-4-4.47-8.16-6.75-12.38-2.71,2.57-4.27,4.9-6.45,5.94C59.82,66.07,54.44,67.88,48.22,70.31Zm47.66-14c-5.27,2.41-6.43,6.16-3.08,10.15,1.88,2.23,4.49,3.86,6.84,5.66s3.35,3.92,2.06,7a6.11,6.11,0,0,0,.39,4.48c6.85,13.82,3.45,33.77-7.53,43.75a19.77,19.77,0,0,0-2.34,3.18c1.38.83,2.76,2.36,4.15,2.37,5.2,0,10.33,2.4,15.61.35,1.39-.54,3.1-.2,4.62-.51,4.94-1,10-1.76,14.76-3.36,4.36-1.45,6.09-5.19,5-9.7a59,59,0,0,1-.28-28.24,31.67,31.67,0,0,0,.5-3.79c.42-3.66-.72-6-4.92-5.9L127,87.66l-1.39-.77c2-3-.57-7.41,3.84-9.81,1.11-.6,1.81-2,2.69-3-1.19-1-2.25-2.44-3.61-2.84-4.05-1.19-8.22-2-12.34-2.89-.53-.12-1.25-.43-1.58-.2-5.61,3.87-10.36.25-15-2C93.81,63.49,93.68,62.64,95.88,56.3ZM48.15,36.46l.08-1.28a44.31,44.31,0,0,1,4.61,0c9.86,1,15.87-4.32,19.53-12.56,1.84-4.16,4.08-7.39,8.37-8.76,2.16-.69,4.54-.7,7.78-1.15-.66-2.39-.64-5.81-2.12-6.67-1.69-1-4.79,0-7.11.69a10.51,10.51,0,0,0-4.05,3c-2.46,2.55-4.77,5.25-7.1,7.92-5.59,6.43-12.48,10-21.13,9.92a44.67,44.67,0,0,0-7.21.5c-6.26,1-10.93,7.54-8.44,13.31C34.19,48,38.29,54,42.15,60c.63,1,3.11,1.7,4.3,1.28,7.32-2.55,14.52-5.46,22.1-8.39-3.44-6.68-14-6.6-13.6-15.74ZM67.86,129c4.93,3.65,9.33,3.11,10.72-.48,1.82-4.7,3.56-9.46,5.79-14a25.27,25.27,0,0,0,1.3-20.19c-.62-1.78-2-3.3-3.51-5.71-2.46,3.91-5.09,6.55-5.87,9.66a108,108,0,0,0-3.44,20.86C72.64,123.34,72.85,127,67.86,129ZM54.92,22.92,56.44,24C67,20.6,70.52,9,79.84,4c-3.12-3.77-5.9-2.3-8.14-.31-4.33,3.85-8.51,7.91-12.44,12.17C57.43,17.85,56.35,20.54,54.92,22.92Z"/><path class="cls-1" d="M48.22,70.31c6.22-2.43,11.6-4.24,16.69-6.67,2.18-1,3.74-3.37,6.45-5.94,2.28,4.22,4.39,8.37,6.75,12.38a9.62,9.62,0,0,0,3.3,3.29c2.6,1.5,5.44,2.56,8.1,4,1.75.92,3.22,2.65,5,3.1,5.66,1.42,7.38,5.77,8.36,10.62,2.38,11.71.53,22.58-6.84,32.24-2.25,3-4.77,5-8.95,4.11-2-.46-4.2-.08-7.32-.08,1.87-3.82,3.27-7.16,5.08-10.27a27.11,27.11,0,0,0,2.54-23c-1.11-3.43-2.61-6.18-7-6.2-2.19,0-4.36-1.21-6.59-1.45-4.6-.5-6.28,1.11-5.43,5.6,3.17,16.82-9,37-25.74,43.81-4.57,1.86-5.26,1.54-6.44-3.18-2-8.06-2-8.05,5.19-12.87,3.77-2.52,7.72-4.84,11.23-7.69,6.19-5,8.34-11.62,6.29-19.44-.18-.69-.22-1.71-.67-2C50.37,86,55.7,75.49,48.22,70.31Z"/><path class="cls-1" d="M95.88,56.3c-2.2,6.34-2.07,7.19,3.71,9.93,4.68,2.22,9.43,5.84,15,2,.33-.23,1.05.08,1.58.2,4.12.92,8.29,1.7,12.34,2.89,1.36.4,2.42,1.86,3.61,2.84-.88,1-1.58,2.35-2.69,3-4.41,2.4-1.86,6.77-3.84,9.81l1.39.77,4.61-5.9c4.2-.13,5.34,2.24,4.92,5.9a31.67,31.67,0,0,1-.5,3.79,59,59,0,0,0,.28,28.24c1.12,4.51-.61,8.25-5,9.7-4.77,1.6-9.82,2.34-14.76,3.36-1.52.31-3.23,0-4.62.51-5.28,2.05-10.41-.31-15.61-.35-1.39,0-2.77-1.54-4.15-2.37a19.77,19.77,0,0,1,2.34-3.18c11-10,14.38-29.93,7.53-43.75a6.11,6.11,0,0,1-.39-4.48c1.29-3.1.36-5.15-2.06-7s-5-3.43-6.84-5.66C89.45,62.46,90.61,58.71,95.88,56.3Z"/><path class="cls-1" d="M48.15,36.46l6.8.71c-.42,9.14,10.16,9.06,13.6,15.74C61,55.84,53.77,58.75,46.45,61.3c-1.19.42-3.67-.29-4.3-1.28C38.29,54,34.19,48,31.36,41.4c-2.49-5.77,2.18-12.34,8.44-13.31a44.67,44.67,0,0,1,7.21-.5c8.65.08,15.54-3.49,21.13-9.92,2.33-2.67,4.64-5.37,7.1-7.92a10.51,10.51,0,0,1,4.05-3c2.32-.7,5.42-1.68,7.11-.69,1.48.86,1.46,4.28,2.12,6.67-3.24.45-5.62.46-7.78,1.15-4.29,1.37-6.53,4.6-8.37,8.76C68.71,30.88,62.7,36.21,52.84,35.2a44.31,44.31,0,0,0-4.61,0Z"/><path class="cls-1" d="M122.85,63.35l-1.37,5a12.49,12.49,0,0,1-3.15-1c-2.17-1.19-4-1.67-6.15.18-.76.65-2.52.62-3.63.27-2.94-.94-5.77-2.2-8.63-3.38-3.19-1.31-5.15-3-2.45-6.64.49-.66.09-2,.1-3-1.55.2-3.77-.19-4.52.69-2.87,3.35-6.45,2.67-10.52,2.33,4.93-4.38,2-13.16,9.71-15.89-1.53,2.26-1.9,4.48,1,5.78.7.31,2.82-.65,2.91-1.24.43-2.88-1.1-4.42-4.06-4.43,2.41-1.41,4.27-1.33,6.74.64,3.14,2.51,7.07,4.05,9.86,5.57a45,45,0,0,0,1,5.84c.12.39,2,.77,2.15.57a37,37,0,0,0,2-4.36l10.26,1.07c.17.44.25,1.56.81,1.89a12.63,12.63,0,0,0,3.38,1c.22-1.08.5-2.15.65-3.24a21.1,21.1,0,0,0,0-2.39c.85.18,1.89.11,2.51.59,2.93,2.2,5.75,4.56,9.34,7.45-2.23,2-4.11,5-6.46,5.47s-4.95-1.94-7.45-3.07l-.57.93a25.78,25.78,0,0,0,3.52,2.24c2.63,1.15,4.53,3.09,3.5,5.82-.37,1-3.38,1.09-5.22,1.37a12.06,12.06,0,0,1-3-.31c3.17-3.78,3-4.19-2.4-5.63.1-1.6.21-3.19.31-4.78a16.6,16.6,0,0,0-3.71,1c-.48.25-.74,2.07-.61,2.13A38.7,38.7,0,0,0,122.85,63.35ZM113.19,61c-1.75-1.22-2.84-2.57-3.7-2.44-1.09.18-2,1.55-3,2.41,1,.95,1.9,2.35,3.08,2.66C110.32,63.81,111.48,62.31,113.19,61Zm-7.8-.76-1-2.35-5.28,1.59a19.84,19.84,0,0,0,1.47,2.94A40,40,0,0,0,105.39,60.23Zm-.56-7.64-1.47-1.65-4.08,2.62,2.39,2.52Z"/><path class="cls-1" d="M67.86,129c5-2,4.78-5.65,5-9.83A108,108,0,0,1,76.29,98.3c.78-3.11,3.41-5.75,5.87-9.66,1.51,2.41,2.89,3.93,3.51,5.71a25.27,25.27,0,0,1-1.3,20.19c-2.23,4.51-4,9.27-5.79,14C77.19,132.1,72.79,132.64,67.86,129Z"/><path class="cls-1" d="M54.92,22.92c1.43-2.38,2.51-5.07,4.34-7.07,3.93-4.26,8.11-8.32,12.44-12.17,2.24-2,5-3.46,8.14.31C70.52,9,67,20.6,56.44,24Z"/><path d="M113.19,61c-1.71,1.32-2.87,2.82-3.58,2.63-1.18-.31-2.07-1.71-3.08-2.66,1-.86,1.87-2.23,3-2.41C110.35,58.42,111.44,59.77,113.19,61Z"/><path d="M92.09,42.05c3,0,4.49,1.55,4.06,4.43-.09.59-2.21,1.55-2.91,1.24-2.9-1.3-2.53-3.52-1-5.78Z"/><path d="M105.39,60.23a40,40,0,0,1-4.77,2.18,19.84,19.84,0,0,1-1.47-2.94l5.28-1.59Z"/><path d="M122.85,63.35a38.7,38.7,0,0,1-4.15-1.52c-.13-.06.13-1.88.61-2.13a16.6,16.6,0,0,1,3.71-1c-.1,1.59-.21,3.18-.31,4.78Z"/><path d="M104.83,52.59l-3.16,3.49-2.39-2.52,4.08-2.62Z"/></g></g></svg>