<svg id="Capa_1" data-name="Capa 1" xmlns="http://www.w3.org/2000/svg" viewBox="0 0 167.59 174.83"><defs><style>.cls-1{fill:#fafafa;}</style></defs><path class="cls-1" d="M93,12.58A41,41,0,1,1,52.06,53.8,41,41,0,0,1,93,12.58Z" transform="translate(-16.2 -12.58)"/><path class="cls-1" d="M100.61,182.59H31.19c-9.36,0-15-5.67-15-15.08q0-13.27,0-26.53c0-5.8,2.56-9.94,7.74-12.64a148.63,148.63,0,0,1,48.48-15.47,135.34,135.34,0,0,1,24.36-1.21v3.49q0,25.15,0,50.32a33.87,33.87,0,0,0,3.61,15.88,5.65,5.65,0,0,1,.29.67A2.46,2.46,0,0,1,100.61,182.59Z" transform="translate(-16.2 -12.58)"/><path class="cls-1" d="M108.49,140.44c0-8.48,0-17,0-25.44.06-11,7.12-19.5,17.76-21.07a71.49,71.49,0,0,1,11-.25,91.5,91.5,0,0,1,11.12.46,18.39,18.39,0,0,1,11.12,6.22,5.84,5.84,0,1,1-8.42,8.09,9.87,9.87,0,0,0-7.54-3.1c-4.63.08-9.27,0-13.9,0-5.53,0-9.36,3.77-9.38,9.3q-.08,25.81,0,51.62c0,5.42,3.81,9.18,9.25,9.28,4.82.09,9.64,0,14.46,0a9.39,9.39,0,0,0,6.88-2.9c2.67-2.69,6.19-2.84,8.61-.48s2.31,6-.37,8.78a19.79,19.79,0,0,1-13.82,6.24c-5.67.17-11.36.33-17,0-11.64-.72-19.66-9.54-19.73-21.32C108.45,157.4,108.49,148.92,108.49,140.44Z" transform="translate(-16.2 -12.58)"/><path class="cls-1" d="M163.1,146.35H161q-12.72,0-25.44,0c-3,0-5.21-1.39-6.12-3.77a5.78,5.78,0,0,1,5.63-7.92c8.73-.05,17.45,0,26.17,0h2.46c-2.08-2.1-3.9-3.85-5.62-5.69a5.8,5.8,0,0,1,2.68-9.74,5.52,5.52,0,0,1,5.56,1.48c5.3,5.23,10.59,10.46,15.81,15.76a5.68,5.68,0,0,1-.13,8.22q-7.74,7.78-15.58,15.47a5.84,5.84,0,1,1-8.18-8.32c1.65-1.7,3.41-3.3,5.12-4.95Z" transform="translate(-16.2 -12.58)"/></svg>