<svg xmlns="http://www.w3.org/2000/svg" viewBox="0 0 668.02 296.82"><defs><style>.cls-1{fill:#231f20;fill-rule:evenodd;}</style></defs><g id="Capa_2" data-name="Capa 2"><g id="Capa_1-2" data-name="Capa 1"><path class="cls-1" d="M654.87,191.23h0a11.39,11.39,0,0,1-8.9-3.61,11.55,11.55,0,0,1-3.6-9.33,11.84,11.84,0,0,1,4.24-9.54,13.7,13.7,0,0,1,8.48-3.39v1.49h-.22a6.82,6.82,0,0,0-5.51,2.54,13.42,13.42,0,0,0-2.75,8.9,14.42,14.42,0,0,0,2.54,9.33,6.82,6.82,0,0,0,5.51,2.55h.21Zm.22-25.66a12.83,12.83,0,0,1-.22,25.66V190a7.89,7.89,0,0,0,5.94-2.75,13.57,13.57,0,0,0,2.33-8.48,14.16,14.16,0,0,0-2.54-9.33,6.82,6.82,0,0,0-5.51-2.54v-1.28Z"/><path class="cls-1" d="M620.32,273.91a44.21,44.21,0,0,0,6.57,11.44,21.53,21.53,0,0,0,16.32,7.43,14,14,0,0,0,9.12-3.18,10.93,10.93,0,0,0,3.82-8.91,11.56,11.56,0,0,0-3.82-8.9,60,60,0,0,0-10.81-7.21l-9.33-5.51a42.67,42.67,0,0,1-7-5.09,15,15,0,0,1-4.66-10.81A17.47,17.47,0,0,1,626,229.81a19.09,19.09,0,0,1,14.63-5.3,43.09,43.09,0,0,1,9.12,1.7,20.43,20.43,0,0,0,6.14,1.69c1.49,0,2.34-.21,2.76-.85a7,7,0,0,0,1.27-2.54h2.12L664.63,247h-2.55c-1.69-6.57-4.66-11.45-8.69-14.2a21.08,21.08,0,0,0-11.66-4.24,13.55,13.55,0,0,0-8.06,2.54,9,9,0,0,0-3.39,7,10.5,10.5,0,0,0,2.55,7,38,38,0,0,0,8,6.15l9.75,5.94a44,44,0,0,1,12.72,9.75,15,15,0,0,1,3.61,10.6,17.58,17.58,0,0,1-6.57,13.78,24.91,24.91,0,0,1-16.75,5.51,32.29,32.29,0,0,1-10.81-1.9,35.76,35.76,0,0,0-6.36-1.91,2.43,2.43,0,0,0-2.55,1.27,7.93,7.93,0,0,0-.85,2.33h-1.9l-3.4-22.47Z"/><polygon class="cls-1" points="322.45 94.34 295.95 14.42 290.87 16.11 320.55 94.98 322.45 94.34"/><polygon class="cls-1" points="316.52 97.1 282.6 33.92 276.45 36.04 314.61 98.37 316.52 97.1"/><polygon class="cls-1" points="310.37 101.55 253.56 30.32 246.77 32.65 308.46 102.82 310.37 101.55"/><polygon class="cls-1" points="305.5 106.85 240.41 49.61 233.2 52.15 303.8 108.12 305.5 106.85"/><polygon class="cls-1" points="301.04 111.94 200.34 50.24 189.74 53.85 299.77 113.84 301.04 111.94"/><polygon class="cls-1" points="298.07 117.87 182.53 70.39 168.12 75.05 297.44 119.78 298.07 117.87"/><polygon class="cls-1" points="330.3 1.27 333.06 92.01 335.39 91.8 337.93 1.27 334.12 0 330.3 1.27"/><polygon class="cls-1" points="348.11 93.92 377.36 16.11 372.28 14.42 346.41 92.86 348.11 93.92"/><polygon class="cls-1" points="354.04 97.52 391.78 36.04 385.42 33.92 351.71 96.89 354.04 97.52"/><polygon class="cls-1" points="360.83 101.55 421.25 32.65 414.46 30.32 359.13 100.28 360.83 101.55"/><polygon class="cls-1" points="365.7 107.06 434.82 52.15 427.82 49.61 364.64 105.15 365.7 107.06"/><polygon class="cls-1" points="371 112.15 478.49 53.85 467.89 50.24 369.94 110.24 371 112.15"/><polygon class="cls-1" points="373.34 118.93 500.11 75.05 485.7 70.39 372.7 116.6 373.34 118.93"/><path class="cls-1" d="M378,125.51,582.16,92.22l-24.59-8.48-180,39.43c.21.85.21,1.49.42,2.34"/><path class="cls-1" d="M378.64,132.29v.42L668,131.44l-35.19-13.35-254.19,12.5v1.7"/><path class="cls-1" d="M340.69,91.37,353,21.62l-5.3-2.12-9.11,71.66a8.06,8.06,0,0,1,2.12.21"/><path class="cls-1" d="M320.76,120.63a17.7,17.7,0,0,0-8.06,1.7,17.7,17.7,0,0,0,8.06,3v9.12H300.62v-2.12A33.37,33.37,0,0,1,320.76,102Zm29,0a15.05,15.05,0,0,0-7.84,3.18,14.4,14.4,0,0,0,7.84,1.48Zm-21,3.18a15.78,15.78,0,0,0-8.06-3.18V102.19A38.53,38.53,0,0,1,335.39,99a33.28,33.28,0,0,1,14.41,3.18v13.35c-7.42,1.27-12.29,4.45-14.62,9.75v9.12H320.76v-9.12a15.17,15.17,0,0,0,8.06-1.48m21-8.27V102.19A36.15,36.15,0,0,1,363,112.36c.85,1.06,1.69,2.33,2.54,3.61a64.92,64.92,0,0,0-15.69-.43m0,10v-4.88a17.67,17.67,0,0,1,8.06,1.7,18,18,0,0,1-8.06,3.18"/><path class="cls-1" d="M21.62,166.21l.22,5.72H21.2a4.07,4.07,0,0,0-.64-2.12,2.92,2.92,0,0,0-1.69-1.48,10.78,10.78,0,0,0-2.55-.42h-3.6v18.65a7.29,7.29,0,0,0,.42,3,2.41,2.41,0,0,0,2.34.64h.84v.63H5.51V190h.85a3.19,3.19,0,0,0,2.33-.84,6.2,6.2,0,0,0,.43-2.76V167.69H5.94a10,10,0,0,0-2.55.22,2.81,2.81,0,0,0-1.69,1.48,6,6,0,0,0-.85,2.54H0l.42-5.72Z"/><path class="cls-1" d="M134.41,167.48v9.75h5.51a3.68,3.68,0,0,0,3-.63,5,5,0,0,0,1.06-3h.64v8.48H144a7.63,7.63,0,0,0-.42-2.33,2.58,2.58,0,0,0-1.06-1.06,10.8,10.8,0,0,0-2.55-.43h-5.51v8.48a5.9,5.9,0,0,0,.21,1.91c0,.21.21.43.43.64a3.62,3.62,0,0,0,1.48.21H141a8.31,8.31,0,0,0,3.18-.42,9.12,9.12,0,0,0,1.91-1.06,12.7,12.7,0,0,0,2.54-3.4h.64l-2.12,6.15H127.2v-.63h.85a4,4,0,0,0,1.7-.43,1.62,1.62,0,0,0,.84-.85,8.34,8.34,0,0,0,.22-2.33V170.45a4.23,4.23,0,0,0-.43-2.76,3.19,3.19,0,0,0-2.33-.84h-.85v-.64h19.93l.21,5.3h-1.06a5.09,5.09,0,0,0-.85-2.54,3.65,3.65,0,0,0-1.48-1.06,10,10,0,0,0-2.54-.22Z"/><path class="cls-1" d="M266.06,182.53h-4.87l-1.7,3.82a4.13,4.13,0,0,0-.64,2.12,1.18,1.18,0,0,0,.64,1.06,5.72,5.72,0,0,0,2.54.64v.63h-8V190a3.61,3.61,0,0,0,2.12-.63,8.37,8.37,0,0,0,2.12-3.39l8.27-18.45v4L262,181.26h4.46Zm4.88,0h-4.88v-1.48h4.45l-4.45-10-.21.21v-4l.64-1.7h.84l8.91,20.57a8,8,0,0,0,1.91,3.18,3.71,3.71,0,0,0,2.54.85v.63H270.51v-.63a3.76,3.76,0,0,0,2.12-.43,1.15,1.15,0,0,0,.64-1.06c-.21-.85-.42-1.69-.64-2.54Z"/><path class="cls-1" d="M407,166.21l.22,5.72h-.85c-.21-.63-.43-1.48-.64-2.12a5.73,5.73,0,0,0-1.69-1.48,10.78,10.78,0,0,0-2.55-.42h-3.6v18.65a4.71,4.71,0,0,0,.63,3,2,2,0,0,0,2.12.64h.85v.63H390.72V190h.85a3.2,3.2,0,0,0,2.33-.84,4.22,4.22,0,0,0,.42-2.76V167.69h-3a10,10,0,0,0-2.55.22,3.72,3.72,0,0,0-1.69,1.48,6,6,0,0,0-.85,2.54h-.64l.21-5.72Z"/><path class="cls-1" d="M523.86,181.26l-1.49-2.12h-2.75v7.21a3.71,3.71,0,0,0,.63,3,3.63,3.63,0,0,0,2.12.63h1.06v.64h-11V190h.85a2.25,2.25,0,0,0,2.33-1.06,5.39,5.39,0,0,0,.42-2.54v-15.9a7.29,7.29,0,0,0-.42-3,3.21,3.21,0,0,0-2.33-.85h-.85V166h11.45v1.69a9.35,9.35,0,0,0-1.06-.21,15.78,15.78,0,0,0-3.18.43v10.17h1.06a16.51,16.51,0,0,0,3.18-.42Zm14,9.54h-6.78l-7.21-9.33v-3.6a6.42,6.42,0,0,0,2.54-1.06,5.58,5.58,0,0,0,.43-7.63h0a7.07,7.07,0,0,0-2.76-1.49v-1.48a11.91,11.91,0,0,1,3.82.64,5.35,5.35,0,0,1,3.18,2.12,4.63,4.63,0,0,1,1.48,3.6,5.81,5.81,0,0,1-1.7,4,8.11,8.11,0,0,1-4.87,2.33l5.3,7a14.41,14.41,0,0,0,3,3.18,10.45,10.45,0,0,0,3.6,1.06Z"/><path class="cls-1" d="M159.43,284.93a21.18,21.18,0,0,0,17,7.85v3.81a34.33,34.33,0,0,1-25.66-10.18,38.14,38.14,0,0,1,.64-53.21,35.55,35.55,0,0,1,25.23-9.33v3.82a21.87,21.87,0,0,0-17,7.84c-4.45,5.3-6.79,13.57-6.79,24.6s2.12,19.5,6.58,24.8m17,7.85h0a21.46,21.46,0,0,0,16.53-7.64q7-8,7-24.8c0-11.24-2.33-19.72-7-25a21.8,21.8,0,0,0-16.53-7.63v-3.82a36,36,0,0,1,25,9.33c7.42,6.79,11,15.69,11,26.93s-3.82,20.56-11.45,27.34a35.66,35.66,0,0,1-24.81,9.12Z"/><path class="cls-1" d="M4.24,273.91a44.5,44.5,0,0,0,6.57,11.44,21.55,21.55,0,0,0,16.33,7.43,14,14,0,0,0,9.11-3.18,11.85,11.85,0,0,0,0-17.81,71.19,71.19,0,0,0-10.6-7.21l-9.54-5.51a28.08,28.08,0,0,1-6.78-5.3A15.3,15.3,0,0,1,4.66,243a17.75,17.75,0,0,1,5.52-13.35,19,19,0,0,1,14.62-5.3A41.78,41.78,0,0,1,33.71,226a28.93,28.93,0,0,0,6.15,1.7,3.77,3.77,0,0,0,3-.85,14.41,14.41,0,0,0,1.28-2.54h2.33l2.33,22.47H46.22c-1.7-6.57-4.67-11.45-8.7-14.2a20.85,20.85,0,0,0-11.66-4,13.52,13.52,0,0,0-8,2.54,9,9,0,0,0-3.39,7,10.49,10.49,0,0,0,2.54,7A32.16,32.16,0,0,0,25,251.22l9.75,5.94a44.29,44.29,0,0,1,12.72,9.75,15.06,15.06,0,0,1,3.6,10.6,17.58,17.58,0,0,1-6.57,13.78,24.89,24.89,0,0,1-16.75,5.51,30.27,30.27,0,0,1-10.6-1.9A35.76,35.76,0,0,0,10.81,293a2.41,2.41,0,0,0-2.54,1.27,7.4,7.4,0,0,0-.85,2.33H4.88l-3.4-22.47Z"/><path class="cls-1" d="M318.64,293.2a16.5,16.5,0,0,0,7.84-1.91c1.06-1.06,1.91-3.6,1.91-7.42V237c0-3.82-.63-6.15-1.91-7.42s-3.81-1.91-7.84-2.12v-1.91H349.8v1.91a17.88,17.88,0,0,0-8.05,1.91c-1.27,1.06-2.12,3.39-2.12,6.78v50.88a5.94,5.94,0,0,0,.63,2.76,6.64,6.64,0,0,0,2.76,1.27c.85,0,1.7.21,2.54.21h4.88c10,0,16.54-.63,19.93-2.12s6.78-5.72,10-12.08h2.76l-5.3,18.23H318.64Z"/><path class="cls-1" d="M480.19,293.2c4.45-.21,7.42-.85,8.69-1.7s2.12-3.6,2.12-7.63V237c0-3.82-.64-6.36-2.12-7.42s-4.24-1.91-8.69-2.12v-1.91h32.64v1.91c-4.45.21-7.2.85-8.69,2.12s-1.91,3.6-1.91,7.42v46.85q0,6,1.91,7.63a17.7,17.7,0,0,0,8.69,1.7v1.91H480.19Z"/><path class="cls-1" d="M329.88,91.37,320.76,19.5l-5.51,2.12L327.76,91.8l2.12-.43"/><path class="cls-1" d="M292.56,123.6,110.45,83.74,85.86,92.22l206.28,33.71a11.11,11.11,0,0,0,.42-2.33"/><path class="cls-1" d="M291.72,132.29v-1.48L35.4,118.09.21,131.44l291.51,1.49v-.64"/></g></g></svg>