<svg xmlns="http://www.w3.org/2000/svg" viewBox="0 0 72.08 100.99"><defs><style>.cls-1{fill:#1360ac;}.cls-2{fill:#0a5aa9;}</style></defs><g id="Capa_2" data-name="Capa 2"><g id="Capa_1-2" data-name="Capa 1"><path class="cls-1" d="M.3,10.35c.74,0,1.49,0,2.22-.16,6.07-.85,8.15.7,7.75-7.52C10.17.61,11.12,0,13.18,0Q34.41.13,55.61,0c2.22,0,3.27.53,3,2.83-.07.73.14,1.48.11,2.22-.12,3.12,1.12,4.65,4.51,4.87,5.35.34,5.34.54,5.34,5.88,0,13-.1,25.89.07,38.83,0,2.77-.84,3.6-3.48,3.78-6.09.41-6.18.52-6.5,6.63-.12,2.23-.57,3.16-3.13,3.14-14-.14-28-.1-42.06,0-2,0-3.12-.23-3.33-2.66-.63-7.37-1.71-8-9.89-7ZM65.13,34.14c0-5.8-.12-11.6.05-17.4.07-2.39-.34-3.44-3.1-3.56-4.43-.2-6.36-2.38-6.55-6.88-.08-2-.56-2.77-2.73-2.76q-18.27.15-36.53,0c-2.15,0-2.64.72-2.75,2.72-.28,4.7-2.15,6.58-7,7-2.06.17-2.69.78-2.67,2.84q.14,18.13,0,36.29c0,1.86.52,2.45,2.43,2.7,5.59.75,6.73,2,7.23,7.48.16,1.72.68,2.33,2.44,2.32q18.45-.09,36.9,0c1.86,0,2.54-.52,2.65-2.48.27-5.15,1.71-6.75,6.95-7.27,2.38-.23,2.74-1.09,2.69-3.18C65,46,65.13,40.07,65.13,34.14Z"/><path class="cls-2" d="M62.8,34.29c0,5.18-.07,10.37,0,15.54,0,1.88-.27,2.77-2.47,3.08A7.91,7.91,0,0,0,53.29,60c-.29,1.88-.89,2.44-2.74,2.43-10.8-.07-21.6,0-32.4,0-1.49,0-2.07-.34-2.33-2-.7-4.36-3.34-7.09-7.85-7.63-1.52-.18-1.75-.82-1.75-2.12q.06-16.47,0-32.94c0-1.55.48-2.08,2.05-2.29,4.35-.59,6.89-3.32,7.53-7.5.28-1.89,1.1-2.07,2.64-2.07,10.67,0,21.35.06,32,0,1.79,0,2.53.39,2.81,2.36.58,3.91,3,6.6,7,7.11,2.5.32,2.58,1.51,2.54,3.42C62.74,23.93,62.8,29.11,62.8,34.29ZM23.15,59.06c2.36,0,4.27-1.94,6.35-6.14,1-2,2.06-4.28,1.52-6.3-.4-1.49-3.07-1-4.54-1.82-.11-.06-.23-.1-.34-.15-1.65-.66-10.34.52-10.63,1.67-.7,2.8.8,5.24,2,7.61a27.35,27.35,0,0,0,2.79,3.88A2.91,2.91,0,0,0,23.15,59.06ZM45.92,9.41c-2.45,0-4,1.35-6.1,5.27-3.06,5.75-2.75,6.68,3,8.94,1.76.7,10.12-.31,10.56-1.61,1-2.89-.78-5.4-2-7.86a24.75,24.75,0,0,0-2.59-3.57A2.91,2.91,0,0,0,45.92,9.41Zm0,49.68c3.15-.39,4.23-3.07,5.6-5.31s2.59-4.63,2-6.93c-.44-1.82-3.44-1.21-5-2.25-3.94-2.54-7.44.42-10.25,1.88-1.87,1,.53,4.85,1.65,7.22a25.86,25.86,0,0,0,2.72,3.94A3.37,3.37,0,0,0,45.94,59.09ZM24,9.33c-4.26.1-5.35,3-6.67,5.39-3.25,5.86-2.79,6.28,3,9,4.18,2,7.65-.28,10.22-2,2-1.31-.42-5.12-1.71-7.58a28.7,28.7,0,0,0-2.31-3.33A3.06,3.06,0,0,0,24,9.33ZM9.64,33.88c0,2.34,0,4.69,0,7,0,.83-.23,1.85,1,2s1.17-.83,1.47-1.65c1.73-4.7,2.14-9.34,0-14-.33-.74-.06-1.89-1.3-1.84-1.49.05-1.22,1.25-1.22,2.21Q9.64,30.73,9.64,33.88ZM28,34.46c0-1.33-3.71-5.28-4.69-5.31s-5.35,4.37-4.88,5.16c1.19,2,2.7,4.66,4.88,4.6S26.89,36.26,28,34.46Zm17.89-5.53c-2.14,1.46-4,2.92-4.85,5.16-.37,1,4,5.46,4.87,5,2-1.14,4.43-2.8,4.39-5S47.64,30.47,45.87,28.93Zm13.42,5.15c0-2.21,0-4.43,0-6.64,0-.79.31-1.86-.94-2.06s-1.16.85-1.48,1.64a18.45,18.45,0,0,0,0,14.4c.27.67.18,1.49,1.21,1.5,1.34,0,1.18-1,1.19-1.83C59.3,38.76,59.29,36.42,59.29,34.08ZM34.39,48.73c-.54,3.75-2.56,6.78-4.46,10.11h9.36A30.12,30.12,0,0,1,34.39,48.73Zm4.72-39h-9.3a26.45,26.45,0,0,1,4.69,9.74A27.29,27.29,0,0,1,39.11,9.7ZM34.45,40.41a11.52,11.52,0,0,0,0-12.47C32.12,32,32.23,36.15,34.45,40.41Zm4.29-3.18c-.17,2.29-1.83,4-.53,5.1.88.75,2.72-.27,4-1.27Zm10,4.17c2.06.27,3.61,1.91,4.63.81s-.31-2.82-.72-4.42ZM16.83,37.87c-.45,1.66-2.54,3.27-1.13,4.46.94.8,2.71-.35,4.08-1.21Zm35.82-7.35c.43-1.64,1.75-3.4.69-4.39s-2.77.18-4,.92ZM42.44,27c-1.75-.55-3.42-2-4.51-.68-.64.79.06,2.91,1.33,4.17ZM26.53,41.16A10.54,10.54,0,0,0,31,42.56a7,7,0,0,0-1.18-4.83ZM16.2,30.2l4-3.25c-1.93-.41-3.55-1.85-4.55-.89C14.47,27.23,16.14,28.83,16.2,30.2Zm13.91.53c.47-2,1.66-3.64.52-4.61s-2.61.24-4.13,1.17ZM12.39,18.12c-2.22.05-3.06.94-2.76,2.81.11.66.32,1.31,1.11,1.14C13,21.59,11.81,19.7,12.39,18.12Zm-.05,32.07c-.47-1.56.58-3.33-1.52-3.89-.74-.2-1.1.32-1.2,1C9.37,49.06,10.11,50.06,12.34,50.19Zm43.9,0c2.75,0,3.31-1.17,3-2.92-.11-.67-.4-1.19-1.21-.94C56,46.94,57.31,48.79,56.24,50.16Zm3-29.64c0-1.16,0-2.17-1.47-2-.65.06-1.87-.07-1.42,1s.2,2.68,2,2.6C59.54,22,59.17,21.05,59.28,20.52Z"/><path class="cls-1" d="M17.06,95.54c0,2.91-.58,5.12-3.72,5.21-3.43.09-3.87-2.23-3.91-5s.58-4.88,3.64-4.92S17.23,93,17.06,95.54Zm-2.21.12c-.14-1.14.21-2.92-1.79-2.81-1.59.09-1.59,1.68-1.53,2.89s-.26,3,1.81,2.92C15.08,98.56,14.75,97,14.85,95.66Z"/><path class="cls-1" d="M4.13,93c-1.23-.06-1.8-.07-2.38-.12S.13,92.82.31,91.73c.14-.81.93-.66,1.51-.7a10.39,10.39,0,0,1,2.23,0c.89.13,2.09-.56,2.6.71.44,1.09-.45,1.84-1,2.64C4.82,95.7,3.91,97,2.84,98.55l2.48.16c.64,0,1.28.09,1.35.9.09,1.08-.72,1.09-1.47,1.12a2.29,2.29,0,0,1-.37,0c-1.55-.23-3.63.81-4.54-.58-1-1.6,1.05-2.74,1.76-4.08C2.5,95.21,3.14,94.45,4.13,93Z"/><path class="cls-1" d="M49.84,100.5c-3.28.78-4.36-.22-4-2.9.16-1.46,0-3,0-4.44,0-.79-.31-2,.95-2,1.6-.07,1.08,1.32,1.15,2.19a24.35,24.35,0,0,1,0,3c-.06,1.31-.08,2.47,1.81,2.44,1,0,2.77-.52,2.58,1.08S50.22,100.25,49.84,100.5Z"/><path class="cls-1" d="M55,95.41c.64-1.19-1.12-4.07,1-4.08,2.6,0,1.06,2.89,1.17,4.43.15,2,.25,3.38,2.78,3,.71-.12,1.64,0,1.71.93s-.85,1-1.58,1.08C55.46,101.44,55,101,55,95.41Z"/><path class="cls-1" d="M42.78,96.06c-.86,1.41,1.22,4.35-1.41,4.37-1.94,0-1-2.89-.87-4.35.15-1.66-1.63-4.72,1.18-4.77C43.61,91.28,42.14,94.38,42.78,96.06Z"/><path class="cls-1" d="M71.81,98.85c-.59-1.68-1.4-4-2.23-6.32-.25-.68-.41-1.43-1.39-1.48a1.73,1.73,0,0,0-1.87,1.42c-.75,2.21-1.56,4.4-2.31,6.61-.18.53-.65,1.22.21,1.53a1.5,1.5,0,0,0,1.33-.28c1.58-2,3.07-2.34,4.72-.07a1.55,1.55,0,0,0,1.3.36C72.09,100.52,72.3,100,71.81,98.85ZM66.5,96.59s.63-3.49,1.4-3.49,1.58,3.49,1.58,3.49A2.09,2.09,0,0,0,66.5,96.59Z"/><path class="cls-1" d="M26.42,96.07c1.2-1.39,1.34-3-.16-4.25s-3.64-1.06-5.35-.63-.73,2.29-.87,3.5a24,24,0,0,0,0,4.07c0,.75-.36,1.95,1.06,1.88,1.26-.06,1.07-1.1,1.1-2,0-.48.12-1,.18-1.43l.78-.27c.51.9,1,1.79,1.52,2.7s1.28,1.36,2.15.89.07-1.27-.16-1.86C26.32,97.85,25.5,97.14,26.42,96.07Zm-4.37-1V92.59s3.09-.55,3,1.22S22.05,95,22.05,95Z"/><path class="cls-1" d="M37,95.67A2.69,2.69,0,0,0,36.72,92c-1.63-1.58-3.79-1.16-5.63-.81-1.6.3-.76,2.06-.86,3.18-.12,1.46-.05,2.94,0,4.41,0,.82-.2,1.91,1.1,1.88s1-1.1,1.08-1.93c0-.46.1-.92.17-1.51,1.47,0,1.52.85,1.88,1.47.52.9.86,2.5,2.23,1.91,1.66-.71.15-1.82-.21-2.64C36,96.94,36.5,96.39,37,95.67ZM32.22,95V92.59s3.09-.55,3,1.22S32.22,95,32.22,95Z"/><path class="cls-1" d="M41.72,81c0-5.12.1-5.22,4.73-4.68.69.08,1.66-.14,1.63.94s-.94.89-1.66,1-2.31-.46-2.33,1c0,1.14,1.26.81,2,.9s1.33.29,1.32,1-.67.88-1.34,1-2-.32-2.07.91,1.14,1,1.92,1.1,2.09-.24,2.08.93c0,1.53-1.48.9-2.32.94C41.72,86.25,41.71,86.22,41.72,81Z"/><path class="cls-1" d="M36.14,78.28c-.78-.35-1.73-.22-1.92.48-.34,1.25.89,1.22,1.68,1.36,1.6.3,2.86,1,3.09,2.71a2.58,2.58,0,0,1-1.46,2.77,5.55,5.55,0,0,1-5-.06c-.45-.2-.89-.49-.79-1.08.14-.8.8-.86,1.42-.77a18,18,0,0,0,2.15.49c.56,0,1.29-.15,1.34-.94,0-.58-.45-.82-.94-.95s-1-.18-1.45-.32c-1.4-.42-2.49-1.14-2.51-2.79a2.67,2.67,0,0,1,1.72-2.63,5.08,5.08,0,0,1,4.32.23A.8.8,0,0,1,38.13,78C37.6,78.78,36.86,78.57,36.14,78.28Z"/><path class="cls-1" d="M58.53,81.15c0,2.73-.5,5-4,4.94-3.23-.09-3.65-2.33-3.66-4.89,0-2.77.57-5,4-5C58.09,76.32,58.58,78.58,58.53,81.15Zm-2.23.12c0-1.36.23-3-1.45-3-2.07-.09-1.63,1.74-1.65,3s-.34,2.83,1.4,2.9C56.64,84.2,56.21,82.41,56.3,81.27Z"/><path class="cls-1" d="M28.74,80.37c-.07,1.69.39,3.5-1.11,4.86a4,4,0,0,1-3.85.74,3.07,3.07,0,0,1-2.47-2.9c-.13-1.71,0-3.44,0-5.17,0-.77.09-1.53,1.13-1.5s1,.84,1.05,1.58c0,1.36,0,2.71,0,4.07,0,1.07.27,2.07,1.52,2.1s1.56-1,1.55-2c0-1.23,0-2.47,0-3.7,0-.81-.25-1.89,1-2,1.71-.13,1.08,1.26,1.2,2.09A14.27,14.27,0,0,1,28.74,80.37Z"/><path class="cls-1" d="M18.17,84c0-2,0-3.94,0-5.91,0-.7.19-1.56-.87-1.72a1.48,1.48,0,0,0-1.56.72c-.87,1.3-.84,3.07-2.26,4.29-.72-1.52-1.37-2.92-2.05-4.32a1.3,1.3,0,0,0-1.55-.66c-.62.11-.72.61-.73,1.1,0,2.47,0,4.93,0,7.4,0,.52.21,1,.8,1s.87-.26,1.07-.78a2.31,2.31,0,0,0,.06-.88s-.31-3.42-.22-3.44,1.11,2.29,1.53,2.91c2,2.45,2.39-.92,3.61-2.2.05,1,.07,1.69.12,2.37s-.29,1.93,1,2S18.15,84.81,18.17,84Z"/></g></g></svg>