<svg id="Capa_2" data-name="Capa 2" xmlns="http://www.w3.org/2000/svg" viewBox="0 0 107.98 26.01"><defs><style>.cls-1{fill:#fbfbfb;}.cls-2{fill:none;}</style></defs><path class="cls-1" d="M30.49,42.22l-6.23-4.67a9.6,9.6,0,0,0-2.8-18.75H4a.46.46,0,0,0-.47.47v1.28H21.32a1.33,1.33,0,0,1,1.33,1.33.26.26,0,0,1-.26.27H3.56C3.75,24.63,5.66,26,9,26H21.46a2.41,2.41,0,1,1,0,4.81h-14a.39.39,0,0,0-.41.34l-3.34,13a.42.42,0,0,0,.07.4.37.37,0,0,0,.33.21h1.2L8.07,33.5a.19.19,0,0,1,.23-.13l.34.08a1.1,1.1,0,0,1,.81,1.33L7,44.81H8.56a2.88,2.88,0,0,0,2.67-2.08l1.2-4.5,1.75,1.29,6.58,4.94a1.75,1.75,0,0,0,1,.35h7a2.39,2.39,0,0,0,1.9-1A1.17,1.17,0,0,0,30.49,42.22Z" transform="translate(-3.54 -18.8)"/><path class="cls-2" d="M41.44,29.6c0-.57-.38-.86-1.15-.86H38l-.45,2.15h2.33A1.93,1.93,0,0,0,41,30.57,1.14,1.14,0,0,0,41.44,29.6Z" transform="translate(-3.54 -18.8)"/><path class="cls-2" d="M50.47,30.62a2.13,2.13,0,0,0-2.15,1.44h3.36a.77.77,0,0,0,0-.27C51.72,31,51.3,30.62,50.47,30.62Z" transform="translate(-3.54 -18.8)"/><path class="cls-1" d="M53.64,29.08a4,4,0,0,0-2.82-1,6,6,0,0,0-4.36,1.59A5.74,5.74,0,0,0,44.83,34a4,4,0,0,0,1.29,3.13,4.84,4.84,0,0,0,3.36,1.16,9,9,0,0,0,3.43-.58l.23-.11.09-.05.27-.17a.3.3,0,0,0,.12-.4l-.2-.39-.72-1.33a.34.34,0,0,0-.12-.12.32.32,0,0,0-.27,0l-.33.11a7.68,7.68,0,0,1-1.87.27c-1.43,0-2.15-.42-2.15-1.26V34.2h5.09a1.55,1.55,0,0,0,1.53-1.28,6.93,6.93,0,0,0,.1-1.15A3.51,3.51,0,0,0,53.64,29.08Zm-2,3H48.32a2.13,2.13,0,0,1,2.15-1.44c.83,0,1.25.39,1.25,1.17A.77.77,0,0,1,51.68,32.06Z" transform="translate(-3.54 -18.8)"/><path class="cls-1" d="M72.79,29.08a4,4,0,0,0-2.81-1,6,6,0,0,0-4.37,1.6A5.77,5.77,0,0,0,64,34a4,4,0,0,0,1.3,3.14,4.88,4.88,0,0,0,3.36,1.16,9,9,0,0,0,3.42-.58l.24-.11.09-.05.27-.17a.3.3,0,0,0,.12-.4l-.21-.39-.71-1.33a.25.25,0,0,0-.13-.12.32.32,0,0,0-.27,0l-.32.11a7.68,7.68,0,0,1-1.87.27c-1.44,0-2.15-.42-2.15-1.26V34.2h5.09a1.55,1.55,0,0,0,1.53-1.28,7.06,7.06,0,0,0,.09-1.15A3.46,3.46,0,0,0,72.79,29.08Zm-2,3H67.47a2.14,2.14,0,0,1,2.15-1.43c.84,0,1.26.39,1.26,1.16A1,1,0,0,1,70.84,32.05Z" transform="translate(-3.54 -18.8)"/><path class="cls-1" d="M35.74,27.43h-.93L32.7,37.37a.57.57,0,0,0,.56.68h.11Z" transform="translate(-3.54 -18.8)"/><path class="cls-1" d="M35.9,26.68l.18-.8h-.49a.57.57,0,0,0-.55.44l-.07.36Z" transform="translate(-3.54 -18.8)"/><path class="cls-1" d="M43.64,32.15a3.7,3.7,0,0,0,1.28-2.83c0-2.3-1.65-3.44-4.93-3.44H36.84v0l-.17.76H41a.42.42,0,0,1,.42.42v.24a.09.09,0,0,1-.08.09H36.5L34.13,38.05h1.41a.55.55,0,0,0,.55-.44L36.86,34a.26.26,0,0,1,.48-.08l2.25,3.76a.77.77,0,0,0,.66.37h3.26a.3.3,0,0,0,.07-.42l0-.05L42.31,35.9l-.07-.08c-.84-1.2-1.71-2.51-1.71-2.51h.09A4.32,4.32,0,0,0,43.64,32.15Zm-3.79-1.26H37.52L38,28.74h2.32c.77,0,1.15.29,1.15.86a1.14,1.14,0,0,1-.44,1A1.93,1.93,0,0,1,39.85,30.89Z" transform="translate(-3.54 -18.8)"/><path class="cls-1" d="M63.08,28.84a8,8,0,0,0-3.85-.75c-2.16.15-3.39,1.44-3.23,3.25a3.08,3.08,0,0,0,2,2.58l1.38.68c.54.3.62.45.62.61,0,.37-.46.53-.69.53a5.29,5.29,0,0,1-3-.91c-.07,0-.07-.08-.15,0s-.08.07-.15.07l-1.08,1.9c-.08.07,0,.22.08.3a7.32,7.32,0,0,0,4.46,1.21c2.39-.23,3.62-1.44,3.46-3.41-.07-1.21-.69-1.89-2-2.57l-1.23-.61c-.69-.38-.77-.45-.77-.68,0-.08,0-.45.62-.45a5.29,5.29,0,0,1,2.46.53h.15c.08,0,.08-.08.16-.16l.84-1.89C63.23,29.07,63.23,28.92,63.08,28.84Z" transform="translate(-3.54 -18.8)"/><path class="cls-1" d="M111.39,28.82a8,8,0,0,0-3.84-.76c-2.16.16-3.39,1.44-3.24,3.26a3.1,3.1,0,0,0,2,2.58l1.38.68c.54.3.62.45.62.6,0,.38-.47.53-.7.53a5.18,5.18,0,0,1-3-.9c-.07,0-.07-.08-.15,0s-.08.07-.16.07l-1.07,1.89c-.08.08,0,.23.07.31a7.37,7.37,0,0,0,4.47,1.21c2.38-.23,3.62-1.44,3.46-3.41-.08-1.21-.69-1.89-2-2.57L108,31.7c-.69-.38-.77-.45-.77-.68,0-.08,0-.46.61-.46a5.59,5.59,0,0,1,2.47.53h.15c.08,0,.08-.07.16-.15l.84-1.89C111.55,29.05,111.55,28.9,111.39,28.82Z" transform="translate(-3.54 -18.8)"/><path class="cls-1" d="M82,28.3h-.15A3.48,3.48,0,0,0,79.6,29h0l0,0-.11.09,0,0,0,.05a1.39,1.39,0,0,0-.19.21,3.32,3.32,0,0,0-.26.36l.22-1a.27.27,0,0,0-.25-.32H76.42a.57.57,0,0,0-.55.45l-1.94,9.22h3.26l.91-4.38A3.75,3.75,0,0,1,79,31.81a2.32,2.32,0,0,1,1.74-.74,2.86,2.86,0,0,1,.46,0h0a.26.26,0,0,0,.27-.13s0-.08.07-.13a5,5,0,0,0,.4-1.15c0-.18.09-.4.14-.67h0l.09-.41A.26.26,0,0,0,82,28.3Z" transform="translate(-3.54 -18.8)"/><path class="cls-1" d="M103.47,28.47c-.07-.07-.2,0-.31,0h-2.44c-.08,0-.15.07-.23.15s-.08.45-.15.76h0a3.14,3.14,0,0,0-2.21-1.14,4.32,4.32,0,0,0-2.22.38A6,6,0,0,0,92,34.33a3.6,3.6,0,0,0,3.66,3.8,4.58,4.58,0,0,0,3.21-1.07c-.08.23-.08.54-.15.76s0,.16.07.16.08.07.15.07h2.45c.07,0,.15-.07.23-.15l1.83-9.26C103.49,28.5,103.49,28.5,103.47,28.47Zm-3.82,4.8a3.14,3.14,0,0,1-.3.91,2.82,2.82,0,0,1-.54.76,1.63,1.63,0,0,1-.76.46,2,2,0,0,1-1.6,0,1.51,1.51,0,0,1-.54-.38,1.8,1.8,0,0,1-.38-.61,3.1,3.1,0,0,1-.07-.84,2.72,2.72,0,0,1,.22-1.06,3.39,3.39,0,0,1,.54-.83,5.08,5.08,0,0,1,.76-.61,2.16,2.16,0,0,1,1-.23,3,3,0,0,1,.84.16,1.12,1.12,0,0,1,.61.45,2.25,2.25,0,0,1,.31.76A4.56,4.56,0,0,1,99.65,33.27Z" transform="translate(-3.54 -18.8)"/><path class="cls-1" d="M92.76,28.38H90.12a.68.68,0,0,0-.59.35l-3,5.44a.11.11,0,0,1-.2,0L86,31l-.19-1.94V29a.67.67,0,0,0-.66-.61h-2a.67.67,0,0,0-.68.59l.31,2,.42,2.7.6,3.84a.67.67,0,0,0,.66.56h2.34a.87.87,0,0,0,.75-.41l3.25-5.27L93,28.84h0C93.2,28.53,93.14,28.38,92.76,28.38Z" transform="translate(-3.54 -18.8)"/></svg>