<svg xmlns="http://www.w3.org/2000/svg" viewBox="0 0 311.58 340.06"><defs><style>.cls-1{fill:#fff;}</style></defs><g id="Capa_2" data-name="Capa 2"><g id="Capa_1-2" data-name="Capa 1"><path class="cls-1" d="M155.38,340.05h-125C11.58,340.05,0,328.46,0,309.67q0-27.57,0-55.13c0-11.61,5.13-20,15.4-25.38a296.38,296.38,0,0,1,95.83-31.35q97.83-14.1,185.6,31.73c9.72,5.08,14.64,13.32,14.69,24.29q.14,28.68,0,57.38C311.47,328,299.45,340,282.67,340Q219,340.11,155.38,340.05Z"/><path class="cls-1" d="M158.09,168C113.45,169.9,73.91,133.27,72,88.29a83.88,83.88,0,1,1,167.55-8.41C241.69,127.34,205.73,166,158.09,168Z"/></g></g></svg>